{
  "source": "C:\\Users\\Peter\\Desktop\\stuff\\MIUN\\quantitative_research\\video_compression\\videos\\BVI-HD\\BVI-HD_CDVL_videos\\ORIG\\DiverFishAndRock_1920x1080_30fps.mp4",
  "output": "C:\\Users\\Peter\\Desktop\\stuff\\MIUN\\quantitative_research\\video_compression\\compressed_videos\\BVI-HD\\hevc\\3\\DiverFishAndRock_1920x1080_30fps_hevc.mp4",
  "codec": "hevc",
  "ok": "Input #0, mov,mp4,m4a,3gp,3g2,mj2, from 'C:\\Users\\Peter\\Desktop\\stuff\\MIUN\\quantitative_research\\video_compression\\videos\\BVI-HD\\BVI-HD_CDVL_videos\\ORIG\\DiverFishAndRock_1920x1080_30fps.mp4':\n  Metadata:\n    major_brand     : isom\n    minor_version   : 512\n    compatible_brands: isomiso2avc1mp41\n    encoder         : Lavf54.28.101\n  Duration: 00:00:05.00, start: 0.000000, bitrate: 228854 kb/s\n  Stream #0:0[0x1](und): Video: h264 (High 4:4:4 Predictive) (avc1 / 0x31637661), yuv420p(progressive), 1920x1080, 228851 kb/s, 30 fps, 30 tbr, 30 tbn (default)\n    Metadata:\n      handler_name    : VideoHandler\n      vendor_id       : [0][0][0][0]\n[out#0/mp4 @ 000002e189f6a980] Codec AVOption b:a (set bitrate (in bits/s)) has not been used for any stream. The most likely reason is either wrong type (e.g. a video option with no video streams) or that it is a private option of some decoder which was not actually used for any stream.\nStream mapping:\n  Stream #0:0 -> #0:0 (h264 (native) -> hevc (libx265))\nPress [q] to stop, [?] for help\n[libx265 @ 000002e18a80b7c0] Unknown option: \"aq-mode.\nx265 [info]: HEVC encoder version 4.1+190-8f11c33ac\nx265 [info]: build info [Windows][GCC 15.1.0][64 bit] 10bit\nx265 [info]: using cpu capabilities: MMX2 SSE2Fast LZCNT SSSE3 SSE4.2 AVX FMA3 BMI2 AVX2\nx265 [info]: Main 10 profile, Level-4 (Main tier)\nx265 [info]: Thread pool created using 12 threads\nx265 [info]: Slices                              : 1\nx265 [info]: frame threads / pool features       : 3 / wpp(17 rows)\nx265 [info]: Coding QT: max CU size, min CU size : 64 / 8\nx265 [info]: Residual QT: max TU size, max depth : 32 / 1 inter / 1 intra\nx265 [info]: ME / range / subpel / merge         : star / 57 / 3 / 3\nx265 [info]: Keyframe min / max / scenecut / bias  : 25 / 250 / 40 / 5.00 \nx265 [info]: Lookahead / bframes / badapt        : 25 / 4 / 2\nx265 [info]: b-pyramid / weightp / weightb       : 1 / 1 / 0\nx265 [info]: References / ref-limit  cu / depth  : 4 / on / on\nx265 [info]: AQ: mode / str / qg-size / cu-tree  : 2 / 1.0 / 32 / 1\nx265 [info]: Rate Control / qCompress            : ABR-3000 kbps / 0.60\nx265 [info]: VBV/HRD buffer / max-rate / init    : 3000 / 3000 / 0.750\nx265 [info]: tools: rect limit-modes rd=4 psy-rd=2.00 rdoq=2 psy-rdoq=1.00\nx265 [info]: tools: rskip mode=1 signhide tmvp strong-intra-smoothing lslices=4\nx265 [info]: tools: deblock sao dhdr10-info\nOutput #0, mp4, to 'C:\\Users\\Peter\\Desktop\\stuff\\MIUN\\quantitative_research\\video_compression\\compressed_videos\\BVI-HD\\hevc\\3\\DiverFishAndRock_1920x1080_30fps_hevc.mp4':\n  Metadata:\n    major_brand     : isom\n    minor_version   : 512\n    compatible_brands: isomiso2avc1mp41\n    encoder         : Lavf62.3.100\n  Stream #0:0(und): Video: hevc (hev1 / 0x31766568), yuv420p10le(tv, progressive), 1920x1080, q=2-31, 3000 kb/s, 30 fps, 15360 tbn (default)\n    Metadata:\n      encoder         : Lavc62.11.100 libx265\n      handler_name    : VideoHandler\n      vendor_id       : [0][0][0][0]\n    Side data:\n      cpb: bitrate max/min/avg: 3000000/0/3000000 buffer size: 3000000 vbv_delay: N/A\nframe=    0 fps=0.0 q=0.0 size=       0KiB time=N/A bitrate=N/A speed=N/A elapsed=0:00:00.51    \nframe=    0 fps=0.0 q=0.0 size=       0KiB time=N/A bitrate=N/A speed=N/A elapsed=0:00:01.13    \nframe=    0 fps=0.0 q=0.0 size=       0KiB time=N/A bitrate=N/A speed=N/A elapsed=0:00:01.65    \nframe=    0 fps=0.0 q=0.0 size=       0KiB time=N/A bitrate=N/A speed=N/A elapsed=0:00:02.21    \nframe=    0 fps=0.0 q=0.0 size=       0KiB time=N/A bitrate=N/A speed=N/A elapsed=0:00:02.77    \nframe=    0 fps=0.0 q=0.0 size=       0KiB time=N/A bitrate=N/A speed=N/A elapsed=0:00:03.27    \nframe=    0 fps=0.0 q=0.0 size=       0KiB time=N/A bitrate=N/A speed=N/A elapsed=0:00:03.80    \nframe=    0 fps=0.0 q=0.0 size=       0KiB time=N/A bitrate=N/A speed=N/A elapsed=0:00:04.36    \nframe=    0 fps=0.0 q=0.0 size=       0KiB time=N/A bitrate=N/A speed=N/A elapsed=0:00:04.87    \nframe=    0 fps=0.0 q=0.0 size=       0KiB time=N/A bitrate=N/A speed=N/A elapsed=0:00:05.39    \nframe=    0 fps=0.0 q=0.0 size=       0KiB time=N/A bitrate=N/A speed=N/A elapsed=0:00:05.91    \nframe=    0 fps=0.0 q=0.0 size=       0KiB time=N/A bitrate=N/A speed=N/A elapsed=0:00:06.42    \nframe=    0 fps=0.0 q=0.0 size=       0KiB time=N/A bitrate=N/A speed=N/A elapsed=0:00:06.96    \nframe=    0 fps=0.0 q=0.0 size=       0KiB time=N/A bitrate=N/A speed=N/A elapsed=0:00:07.48    \nframe=    0 fps=0.0 q=0.0 size=       0KiB time=N/A bitrate=N/A speed=N/A elapsed=0:00:08.02    \nframe=    1 fps=0.1 q=31.7 size=       0KiB time=-00:00:00.03 bitrate=N/A speed=N/A elapsed=0:00:08.55    \nframe=    1 fps=0.1 q=31.7 size=       0KiB time=-00:00:00.03 bitrate=N/A speed=N/A elapsed=0:00:09.07    \nframe=    2 fps=0.2 q=35.0 size=       0KiB time=00:00:00.00 bitrate=N/A speed=   0x elapsed=0:00:09.60    \nframe=    2 fps=0.2 q=35.0 size=       0KiB time=00:00:00.00 bitrate=N/A speed=   0x elapsed=0:00:10.10    \nframe=    3 fps=0.3 q=38.3 size=       0KiB time=00:00:00.03 bitrate=  10.6kbits/s speed=0.00314x elapsed=0:00:10.63    \nframe=    3 fps=0.3 q=38.3 size=       0KiB time=00:00:00.03 bitrate=  10.6kbits/s speed=0.00299x elapsed=0:00:11.13    \nframe=    4 fps=0.3 q=40.2 size=       0KiB time=00:00:00.06 bitrate=   5.3kbits/s speed=0.00572x elapsed=0:00:11.65    \nframe=    4 fps=0.3 q=40.2 size=       0KiB time=00:00:00.06 bitrate=   5.3kbits/s speed=0.00547x elapsed=0:00:12.18    \nframe=    4 fps=0.3 q=40.2 size=       0KiB time=00:00:00.06 bitrate=   5.3kbits/s speed=0.00525x elapsed=0:00:12.69    \nframe=    4 fps=0.3 q=40.2 size=       0KiB time=00:00:00.06 bitrate=   5.3kbits/s speed=0.00504x elapsed=0:00:13.21    \nframe=    5 fps=0.4 q=38.7 size=       0KiB time=00:00:00.10 bitrate=   3.5kbits/s speed=0.00728x elapsed=0:00:13.73    \nframe=    5 fps=0.3 q=38.7 size=       0KiB time=00:00:00.10 bitrate=   3.5kbits/s speed=0.007x elapsed=0:00:14.29    \nframe=    6 fps=0.4 q=32.5 size=       0KiB time=00:00:00.13 bitrate=   2.6kbits/s speed=0.00897x elapsed=0:00:14.86    \nframe=    6 fps=0.4 q=32.5 size=       0KiB time=00:00:00.13 bitrate=   2.6kbits/s speed=0.00865x elapsed=0:00:15.41    \nframe=    6 fps=0.4 q=32.5 size=       0KiB time=00:00:00.13 bitrate=   2.6kbits/s speed=0.00837x elapsed=0:00:15.93    \nframe=    7 fps=0.4 q=36.3 size=       0KiB time=00:00:00.16 bitrate=   2.1kbits/s speed=0.0101x elapsed=0:00:16.44    \nframe=    7 fps=0.4 q=36.3 size=       0KiB time=00:00:00.16 bitrate=   2.1kbits/s speed=0.00978x elapsed=0:00:17.03    \nframe=    7 fps=0.4 q=36.3 size=       0KiB time=00:00:00.16 bitrate=   2.1kbits/s speed=0.00948x elapsed=0:00:17.58    \nframe=    7 fps=0.4 q=36.3 size=       0KiB time=00:00:00.16 bitrate=   2.1kbits/s speed=0.00918x elapsed=0:00:18.16    \nframe=    7 fps=0.4 q=36.3 size=       0KiB time=00:00:00.16 bitrate=   2.1kbits/s speed=0.00887x elapsed=0:00:18.78    \nframe=    7 fps=0.4 q=36.3 size=       0KiB time=00:00:00.16 bitrate=   2.1kbits/s speed=0.0086x elapsed=0:00:19.38    \nframe=    7 fps=0.4 q=36.3 size=       0KiB time=00:00:00.16 bitrate=   2.1kbits/s speed=0.00835x elapsed=0:00:19.95    \nframe=    7 fps=0.3 q=36.3 size=       0KiB time=00:00:00.16 bitrate=   2.1kbits/s speed=0.00814x elapsed=0:00:20.47    \nframe=    7 fps=0.3 q=36.3 size=       0KiB time=00:00:00.16 bitrate=   2.1kbits/s speed=0.00794x elapsed=0:00:20.98    \nframe=    7 fps=0.3 q=36.3 size=       0KiB time=00:00:00.16 bitrate=   2.1kbits/s speed=0.00774x elapsed=0:00:21.53    \nframe=    7 fps=0.3 q=36.3 size=       0KiB time=00:00:00.16 bitrate=   2.1kbits/s speed=0.00754x elapsed=0:00:22.11    \nframe=    7 fps=0.3 q=36.3 size=       0KiB time=00:00:00.16 bitrate=   2.1kbits/s speed=0.00736x elapsed=0:00:22.65    \nframe=    7 fps=0.3 q=36.3 size=       0KiB time=00:00:00.16 bitrate=   2.1kbits/s speed=0.00719x elapsed=0:00:23.19    \nframe=    7 fps=0.3 q=36.3 size=       0KiB time=00:00:00.16 bitrate=   2.1kbits/s speed=0.00703x elapsed=0:00:23.70    \nframe=    8 fps=0.3 q=37.0 size=       0KiB time=00:00:00.20 bitrate=   1.8kbits/s speed=0.00825x elapsed=0:00:24.25    \nframe=    8 fps=0.3 q=37.0 size=       0KiB time=00:00:00.20 bitrate=   1.8kbits/s speed=0.00806x elapsed=0:00:24.81    \nframe=    8 fps=0.3 q=37.0 size=       0KiB time=00:00:00.20 bitrate=   1.8kbits/s speed=0.0079x elapsed=0:00:25.32    \nframe=    8 fps=0.3 q=37.0 size=       0KiB time=00:00:00.20 bitrate=   1.8kbits/s speed=0.00773x elapsed=0:00:25.86    \nframe=    8 fps=0.3 q=37.0 size=       0KiB time=00:00:00.20 bitrate=   1.8kbits/s speed=0.00757x elapsed=0:00:26.42    \nframe=    9 fps=0.3 q=36.2 size=       0KiB time=00:00:00.23 bitrate=   1.5kbits/s speed=0.00864x elapsed=0:00:26.99    \nframe=    9 fps=0.3 q=36.2 size=       0KiB time=00:00:00.23 bitrate=   1.5kbits/s speed=0.00847x elapsed=0:00:27.55    \nframe=    9 fps=0.3 q=36.2 size=       0KiB time=00:00:00.23 bitrate=   1.5kbits/s speed=0.00831x elapsed=0:00:28.08    \nframe=    9 fps=0.3 q=36.2 size=       0KiB time=00:00:00.23 bitrate=   1.5kbits/s speed=0.00815x elapsed=0:00:28.61    \nframe=    9 fps=0.3 q=36.2 size=       0KiB time=00:00:00.23 bitrate=   1.5kbits/s speed=0.00799x elapsed=0:00:29.18    \nframe=    9 fps=0.3 q=36.2 size=       0KiB time=00:00:00.23 bitrate=   1.5kbits/s speed=0.00784x elapsed=0:00:29.74    \nframe=   10 fps=0.3 q=31.1 size=       0KiB time=00:00:00.26 bitrate=   1.3kbits/s speed=0.00879x elapsed=0:00:30.34    \nframe=   10 fps=0.3 q=31.1 size=       0KiB time=00:00:00.26 bitrate=   1.3kbits/s speed=0.00863x elapsed=0:00:30.90    \nframe=   10 fps=0.3 q=31.1 size=       0KiB time=00:00:00.26 bitrate=   1.3kbits/s speed=0.00848x elapsed=0:00:31.44    \nframe=   10 fps=0.3 q=31.1 size=       0KiB time=00:00:00.26 bitrate=   1.3kbits/s speed=0.00834x elapsed=0:00:31.98    \nframe=   11 fps=0.3 q=35.4 size=       0KiB time=00:00:00.30 bitrate=   1.2kbits/s speed=0.00921x elapsed=0:00:32.56    \nframe=   11 fps=0.3 q=35.4 size=       0KiB time=00:00:00.30 bitrate=   1.2kbits/s speed=0.00906x elapsed=0:00:33.11    \nframe=   11 fps=0.3 q=35.4 size=       0KiB time=00:00:00.30 bitrate=   1.2kbits/s speed=0.00892x elapsed=0:00:33.63    \nframe=   12 fps=0.4 q=35.9 size=       0KiB time=00:00:00.33 bitrate=   1.1kbits/s speed=0.00975x elapsed=0:00:34.17    \nframe=   12 fps=0.3 q=35.9 size=       0KiB time=00:00:00.33 bitrate=   1.1kbits/s speed=0.00961x elapsed=0:00:34.70    \nframe=   12 fps=0.3 q=35.9 size=       0KiB time=00:00:00.33 bitrate=   1.1kbits/s speed=0.00945x elapsed=0:00:35.26    \nframe=   12 fps=0.3 q=35.9 size=       0KiB time=00:00:00.33 bitrate=   1.1kbits/s speed=0.00931x elapsed=0:00:35.78    \nframe=   12 fps=0.3 q=35.9 size=       0KiB time=00:00:00.33 bitrate=   1.1kbits/s speed=0.00918x elapsed=0:00:36.31    \nframe=   13 fps=0.4 q=35.9 size=       0KiB time=00:00:00.36 bitrate=   1.0kbits/s speed=0.00995x elapsed=0:00:36.84    \nframe=   13 fps=0.3 q=35.9 size=       0KiB time=00:00:00.36 bitrate=   1.0kbits/s speed=0.0098x elapsed=0:00:37.40    \nframe=   14 fps=0.4 q=35.6 size=       0KiB time=00:00:00.40 bitrate=   0.9kbits/s speed=0.0105x elapsed=0:00:37.98    \nframe=   14 fps=0.4 q=35.6 size=       0KiB time=00:00:00.40 bitrate=   0.9kbits/s speed=0.0104x elapsed=0:00:38.59    \nframe=   14 fps=0.4 q=35.6 size=       0KiB time=00:00:00.40 bitrate=   0.9kbits/s speed=0.0102x elapsed=0:00:39.22    \nframe=   14 fps=0.4 q=35.6 size=       0KiB time=00:00:00.40 bitrate=   0.9kbits/s speed=0.01x elapsed=0:00:39.85    \nframe=   14 fps=0.3 q=35.6 size=       0KiB time=00:00:00.40 bitrate=   0.9kbits/s speed=0.00989x elapsed=0:00:40.42    \nframe=   14 fps=0.3 q=35.6 size=       0KiB time=00:00:00.40 bitrate=   0.9kbits/s speed=0.00977x elapsed=0:00:40.95    \nframe=   14 fps=0.3 q=35.6 size=       0KiB time=00:00:00.40 bitrate=   0.9kbits/s speed=0.00964x elapsed=0:00:41.48    \nframe=   14 fps=0.3 q=35.6 size=       0KiB time=00:00:00.40 bitrate=   0.9kbits/s speed=0.00952x elapsed=0:00:42.03    \nframe=   14 fps=0.3 q=35.6 size=       0KiB time=00:00:00.40 bitrate=   0.9kbits/s speed=0.0094x elapsed=0:00:42.57    \nframe=   14 fps=0.3 q=35.6 size=       0KiB time=00:00:00.40 bitrate=   0.9kbits/s speed=0.00928x elapsed=0:00:43.08    \nframe=   14 fps=0.3 q=35.6 size=       0KiB time=00:00:00.40 bitrate=   0.9kbits/s speed=0.00917x elapsed=0:00:43.61    \nframe=   15 fps=0.3 q=30.1 size=       0KiB time=00:00:00.43 bitrate=   0.8kbits/s speed=0.00982x elapsed=0:00:44.13    \nframe=   15 fps=0.3 q=30.1 size=       0KiB time=00:00:00.43 bitrate=   0.8kbits/s speed=0.0097x elapsed=0:00:44.65    \nframe=   16 fps=0.4 q=33.9 size=       0KiB time=00:00:00.46 bitrate=   0.8kbits/s speed=0.0103x elapsed=0:00:45.17    \nframe=   16 fps=0.4 q=33.9 size=       0KiB time=00:00:00.46 bitrate=   0.8kbits/s speed=0.0102x elapsed=0:00:45.69    \nframe=   16 fps=0.3 q=33.9 size=       0KiB time=00:00:00.46 bitrate=   0.8kbits/s speed=0.0101x elapsed=0:00:46.19    \nframe=   17 fps=0.4 q=35.7 size=       0KiB time=00:00:00.50 bitrate=   0.7kbits/s speed=0.0107x elapsed=0:00:46.72    \nframe=   17 fps=0.4 q=35.7 size=       0KiB time=00:00:00.50 bitrate=   0.7kbits/s speed=0.0106x elapsed=0:00:47.23    \nframe=   18 fps=0.4 q=35.7 size=       0KiB time=00:00:00.53 bitrate=   0.7kbits/s speed=0.0112x elapsed=0:00:47.78    \nframe=   18 fps=0.4 q=35.7 size=       0KiB time=00:00:00.53 bitrate=   0.7kbits/s speed=0.011x elapsed=0:00:48.32    \nframe=   19 fps=0.4 q=30.0 size=       0KiB time=00:00:00.56 bitrate=   0.6kbits/s speed=0.0116x elapsed=0:00:48.88    \nframe=   20 fps=0.4 q=33.5 size=       0KiB time=00:00:00.60 bitrate=   0.6kbits/s speed=0.0121x elapsed=0:00:49.43    \nframe=   20 fps=0.4 q=33.5 size=       0KiB time=00:00:00.60 bitrate=   0.6kbits/s speed=0.012x elapsed=0:00:49.97    \nframe=   20 fps=0.4 q=33.5 size=       0KiB time=00:00:00.60 bitrate=   0.6kbits/s speed=0.0119x elapsed=0:00:50.55    \nframe=   20 fps=0.4 q=33.5 size=       0KiB time=00:00:00.60 bitrate=   0.6kbits/s speed=0.0117x elapsed=0:00:51.11    \nframe=   20 fps=0.4 q=33.5 size=       0KiB time=00:00:00.60 bitrate=   0.6kbits/s speed=0.0116x elapsed=0:00:51.71    \nframe=   20 fps=0.4 q=33.5 size=       0KiB time=00:00:00.60 bitrate=   0.6kbits/s speed=0.0115x elapsed=0:00:52.28    \nframe=   20 fps=0.4 q=33.5 size=       0KiB time=00:00:00.60 bitrate=   0.6kbits/s speed=0.0114x elapsed=0:00:52.82    \nframe=   20 fps=0.4 q=33.5 size=       0KiB time=00:00:00.60 bitrate=   0.6kbits/s speed=0.0112x elapsed=0:00:53.37    \nframe=   20 fps=0.4 q=33.5 size=       0KiB time=00:00:00.60 bitrate=   0.6kbits/s speed=0.0111x elapsed=0:00:53.96    \nframe=   20 fps=0.4 q=33.5 size=       0KiB time=00:00:00.60 bitrate=   0.6kbits/s speed=0.011x elapsed=0:00:54.53    \nframe=   20 fps=0.4 q=33.5 size=       0KiB time=00:00:00.60 bitrate=   0.6kbits/s speed=0.0109x elapsed=0:00:55.07    \nframe=   20 fps=0.4 q=33.5 size=       0KiB time=00:00:00.60 bitrate=   0.6kbits/s speed=0.0108x elapsed=0:00:55.66    \nframe=   20 fps=0.4 q=33.5 size=       0KiB time=00:00:00.60 bitrate=   0.6kbits/s speed=0.0107x elapsed=0:00:56.28    \nframe=   20 fps=0.4 q=33.5 size=       0KiB time=00:00:00.60 bitrate=   0.6kbits/s speed=0.0106x elapsed=0:00:56.82    \nframe=   21 fps=0.4 q=35.6 size=       0KiB time=00:00:00.63 bitrate=   0.6kbits/s speed=0.011x elapsed=0:00:57.37    \nframe=   21 fps=0.4 q=35.6 size=       0KiB time=00:00:00.63 bitrate=   0.6kbits/s speed=0.0109x elapsed=0:00:57.93    \nframe=   21 fps=0.4 q=35.6 size=       0KiB time=00:00:00.63 bitrate=   0.6kbits/s speed=0.0108x elapsed=0:00:58.48    \nframe=   22 fps=0.4 q=34.8 size=       0KiB time=00:00:00.66 bitrate=   0.5kbits/s speed=0.0113x elapsed=0:00:59.13    \nframe=   22 fps=0.4 q=34.8 size=       0KiB time=00:00:00.66 bitrate=   0.5kbits/s speed=0.0112x elapsed=0:00:59.72    \nframe=   22 fps=0.4 q=34.8 size=       0KiB time=00:00:00.66 bitrate=   0.5kbits/s speed=0.0111x elapsed=0:01:00.29    \nframe=   22 fps=0.4 q=34.8 size=       0KiB time=00:00:00.66 bitrate=   0.5kbits/s speed=0.011x elapsed=0:01:00.82    \nframe=   22 fps=0.4 q=34.8 size=       0KiB time=00:00:00.66 bitrate=   0.5kbits/s speed=0.0109x elapsed=0:01:01.34    \nframe=   22 fps=0.4 q=34.8 size=       0KiB time=00:00:00.66 bitrate=   0.5kbits/s speed=0.0108x elapsed=0:01:01.86    \nframe=   22 fps=0.4 q=34.8 size=       0KiB time=00:00:00.66 bitrate=   0.5kbits/s speed=0.0107x elapsed=0:01:02.38    \nframe=   22 fps=0.3 q=34.8 size=       0KiB time=00:00:00.66 bitrate=   0.5kbits/s speed=0.0106x elapsed=0:01:02.94    \nframe=   23 fps=0.4 q=29.8 size=       0KiB time=00:00:00.70 bitrate=   0.5kbits/s speed=0.011x elapsed=0:01:03.50    \nframe=   23 fps=0.4 q=29.8 size=       0KiB time=00:00:00.70 bitrate=   0.5kbits/s speed=0.0109x elapsed=0:01:04.06    \nframe=   23 fps=0.4 q=29.8 size=       0KiB time=00:00:00.70 bitrate=   0.5kbits/s speed=0.0108x elapsed=0:01:04.59    \nframe=   24 fps=0.4 q=32.6 size=     256KiB time=00:00:00.73 bitrate=2860.2kbits/s speed=0.0113x elapsed=0:01:05.13    \nframe=   24 fps=0.4 q=32.6 size=     256KiB time=00:00:00.73 bitrate=2860.2kbits/s speed=0.0112x elapsed=0:01:05.65    \nframe=   25 fps=0.4 q=34.6 size=     256KiB time=00:00:00.76 bitrate=2735.9kbits/s speed=0.0116x elapsed=0:01:06.22    \nframe=   25 fps=0.4 q=34.6 size=     256KiB time=00:00:00.76 bitrate=2735.9kbits/s speed=0.0115x elapsed=0:01:06.81    \nframe=   25 fps=0.4 q=34.6 size=     256KiB time=00:00:00.76 bitrate=2735.9kbits/s speed=0.0114x elapsed=0:01:07.38    \nframe=   25 fps=0.4 q=34.6 size=     256KiB time=00:00:00.76 bitrate=2735.9kbits/s speed=0.0113x elapsed=0:01:07.93    \nframe=   25 fps=0.4 q=34.6 size=     256KiB time=00:00:00.76 bitrate=2735.9kbits/s speed=0.0112x elapsed=0:01:08.47    \nframe=   25 fps=0.4 q=34.6 size=     256KiB time=00:00:00.76 bitrate=2735.9kbits/s speed=0.0111x elapsed=0:01:09.01    \nframe=   25 fps=0.4 q=34.6 size=     256KiB time=00:00:00.76 bitrate=2735.9kbits/s speed=0.011x elapsed=0:01:09.55    \nframe=   25 fps=0.4 q=34.6 size=     256KiB time=00:00:00.76 bitrate=2735.9kbits/s speed=0.0109x elapsed=0:01:10.11    \nframe=   25 fps=0.4 q=34.6 size=     256KiB time=00:00:00.76 bitrate=2735.9kbits/s speed=0.0108x elapsed=0:01:10.67    \nframe=   25 fps=0.4 q=34.6 size=     256KiB time=00:00:00.76 bitrate=2735.9kbits/s speed=0.0108x elapsed=0:01:11.21    \nframe=   25 fps=0.3 q=34.6 size=     256KiB time=00:00:00.76 bitrate=2735.9kbits/s speed=0.0107x elapsed=0:01:11.76    \nframe=   25 fps=0.3 q=34.6 size=     256KiB time=00:00:00.76 bitrate=2735.9kbits/s speed=0.0106x elapsed=0:01:12.30    \nframe=   26 fps=0.4 q=34.5 size=     256KiB time=00:00:00.80 bitrate=2621.9kbits/s speed=0.011x elapsed=0:01:12.85    \nframe=   26 fps=0.4 q=34.5 size=     256KiB time=00:00:00.80 bitrate=2621.9kbits/s speed=0.0109x elapsed=0:01:13.38    \nframe=   26 fps=0.4 q=34.5 size=     256KiB time=00:00:00.80 bitrate=2621.9kbits/s speed=0.0108x elapsed=0:01:13.92    \nframe=   26 fps=0.3 q=34.5 size=     256KiB time=00:00:00.80 bitrate=2621.9kbits/s speed=0.0107x elapsed=0:01:14.50    \nframe=   26 fps=0.3 q=34.5 size=     256KiB time=00:00:00.80 bitrate=2621.9kbits/s speed=0.0106x elapsed=0:01:15.14    \nframe=   26 fps=0.3 q=34.5 size=     256KiB time=00:00:00.80 bitrate=2621.9kbits/s speed=0.0106x elapsed=0:01:15.74    \nframe=   26 fps=0.3 q=34.5 size=     256KiB time=00:00:00.80 bitrate=2621.9kbits/s speed=0.0105x elapsed=0:01:16.33    \nframe=   26 fps=0.3 q=34.5 size=     256KiB time=00:00:00.80 bitrate=2621.9kbits/s speed=0.0104x elapsed=0:01:16.87    \nframe=   26 fps=0.3 q=34.5 size=     256KiB time=00:00:00.80 bitrate=2621.9kbits/s speed=0.0103x elapsed=0:01:17.44    \nframe=   26 fps=0.3 q=34.5 size=     256KiB time=00:00:00.80 bitrate=2621.9kbits/s speed=0.0103x elapsed=0:01:18.01    \nframe=   26 fps=0.3 q=34.5 size=     256KiB time=00:00:00.80 bitrate=2621.9kbits/s speed=0.0102x elapsed=0:01:18.56    \nframe=   26 fps=0.3 q=34.5 size=     256KiB time=00:00:00.80 bitrate=2621.9kbits/s speed=0.0101x elapsed=0:01:19.15    \nframe=   27 fps=0.3 q=34.3 size=     256KiB time=00:00:00.83 bitrate=2517.0kbits/s speed=0.0105x elapsed=0:01:19.73    \nframe=   27 fps=0.3 q=34.3 size=     256KiB time=00:00:00.83 bitrate=2517.0kbits/s speed=0.0104x elapsed=0:01:20.28    \nframe=   27 fps=0.3 q=34.3 size=     256KiB time=00:00:00.83 bitrate=2517.0kbits/s speed=0.0103x elapsed=0:01:20.81    \nframe=   28 fps=0.3 q=29.6 size=     256KiB time=00:00:00.86 bitrate=2420.2kbits/s speed=0.0107x elapsed=0:01:21.32    \nframe=   28 fps=0.3 q=29.6 size=     256KiB time=00:00:00.86 bitrate=2420.2kbits/s speed=0.0106x elapsed=0:01:21.86    \nframe=   28 fps=0.3 q=29.6 size=     256KiB time=00:00:00.86 bitrate=2420.2kbits/s speed=0.0105x elapsed=0:01:22.40    \nframe=   29 fps=0.3 q=31.3 size=     256KiB time=00:00:00.90 bitrate=2330.6kbits/s speed=0.0109x elapsed=0:01:22.92    \nframe=   29 fps=0.3 q=31.3 size=     256KiB time=00:00:00.90 bitrate=2330.6kbits/s speed=0.0108x elapsed=0:01:23.46    \nframe=   29 fps=0.3 q=31.3 size=     256KiB time=00:00:00.90 bitrate=2330.6kbits/s speed=0.0107x elapsed=0:01:24.02    \nframe=   30 fps=0.4 q=35.6 size=     256KiB time=00:00:00.93 bitrate=2247.3kbits/s speed=0.011x elapsed=0:01:24.55    \nframe=   30 fps=0.4 q=35.6 size=     256KiB time=00:00:00.93 bitrate=2247.3kbits/s speed=0.011x elapsed=0:01:25.08    \nframe=   30 fps=0.4 q=35.6 size=     256KiB time=00:00:00.93 bitrate=2247.3kbits/s speed=0.0109x elapsed=0:01:25.60    \nframe=   30 fps=0.3 q=35.6 size=     256KiB time=00:00:00.93 bitrate=2247.3kbits/s speed=0.0108x elapsed=0:01:26.12    \nframe=   30 fps=0.3 q=35.6 size=     256KiB time=00:00:00.93 bitrate=2247.3kbits/s speed=0.0108x elapsed=0:01:26.64    \nframe=   30 fps=0.3 q=35.6 size=     256KiB time=00:00:00.93 bitrate=2247.3kbits/s speed=0.0107x elapsed=0:01:27.15    \nframe=   30 fps=0.3 q=35.6 size=     256KiB time=00:00:00.93 bitrate=2247.3kbits/s speed=0.0106x elapsed=0:01:27.67    \nframe=   31 fps=0.4 q=35.1 size=     256KiB time=00:00:00.96 bitrate=2169.8kbits/s speed=0.011x elapsed=0:01:28.19    \nframe=   31 fps=0.3 q=35.1 size=     256KiB time=00:00:00.96 bitrate=2169.8kbits/s speed=0.0109x elapsed=0:01:28.71    \nframe=   31 fps=0.3 q=35.1 size=     256KiB time=00:00:00.96 bitrate=2169.8kbits/s speed=0.0108x elapsed=0:01:29.24    \nframe=   32 fps=0.4 q=35.1 size=     256KiB time=00:00:01.00 bitrate=2097.5kbits/s speed=0.0111x elapsed=0:01:29.75    \nframe=   32 fps=0.4 q=35.1 size=     256KiB time=00:00:01.00 bitrate=2097.5kbits/s speed=0.0111x elapsed=0:01:30.28    \nframe=   33 fps=0.4 q=29.9 size=     256KiB time=00:00:01.03 bitrate=2029.8kbits/s speed=0.0114x elapsed=0:01:30.82    \nframe=   33 fps=0.4 q=29.9 size=     256KiB time=00:00:01.03 bitrate=2029.8kbits/s speed=0.0113x elapsed=0:01:31.34    \nframe=   33 fps=0.4 q=29.9 size=     256KiB time=00:00:01.03 bitrate=2029.8kbits/s speed=0.0112x elapsed=0:01:31.86    \nframe=   34 fps=0.4 q=33.3 size=     256KiB time=00:00:01.06 bitrate=1966.4kbits/s speed=0.0115x elapsed=0:01:32.41    \nframe=   34 fps=0.4 q=33.3 size=     256KiB time=00:00:01.06 bitrate=1966.4kbits/s speed=0.0115x elapsed=0:01:32.96    \nframe=   34 fps=0.4 q=33.3 size=     256KiB time=00:00:01.06 bitrate=1966.4kbits/s speed=0.0114x elapsed=0:01:33.50    \nframe=   34 fps=0.4 q=33.3 size=     256KiB time=00:00:01.06 bitrate=1966.4kbits/s speed=0.0113x elapsed=0:01:34.06    \nframe=   34 fps=0.4 q=33.3 size=     256KiB time=00:00:01.06 bitrate=1966.4kbits/s speed=0.0113x elapsed=0:01:34.59    \nframe=   34 fps=0.4 q=33.3 size=     256KiB time=00:00:01.06 bitrate=1966.4kbits/s speed=0.0112x elapsed=0:01:35.13    \nframe=   35 fps=0.4 q=35.7 size=     256KiB time=00:00:01.10 bitrate=1906.8kbits/s speed=0.0115x elapsed=0:01:35.63    \nframe=   35 fps=0.4 q=35.7 size=     256KiB time=00:00:01.10 bitrate=1906.8kbits/s speed=0.0114x elapsed=0:01:36.15    \nframe=   35 fps=0.4 q=35.7 size=     256KiB time=00:00:01.10 bitrate=1906.8kbits/s speed=0.0114x elapsed=0:01:36.70    \nframe=   36 fps=0.4 q=35.1 size=     256KiB time=00:00:01.13 bitrate=1850.7kbits/s speed=0.0117x elapsed=0:01:37.23    \nframe=   36 fps=0.4 q=35.1 size=     256KiB time=00:00:01.13 bitrate=1850.7kbits/s speed=0.0116x elapsed=0:01:37.76    \nframe=   36 fps=0.4 q=35.1 size=     256KiB time=00:00:01.13 bitrate=1850.7kbits/s speed=0.0115x elapsed=0:01:38.29    \nframe=   36 fps=0.4 q=35.1 size=     256KiB time=00:00:01.13 bitrate=1850.7kbits/s speed=0.0115x elapsed=0:01:38.81    \nframe=   36 fps=0.4 q=35.1 size=     256KiB time=00:00:01.13 bitrate=1850.7kbits/s speed=0.0114x elapsed=0:01:39.35    \nframe=   37 fps=0.4 q=29.5 size=     256KiB time=00:00:01.16 bitrate=1797.9kbits/s speed=0.0117x elapsed=0:01:39.89    \nframe=   37 fps=0.4 q=29.5 size=     256KiB time=00:00:01.16 bitrate=1797.9kbits/s speed=0.0116x elapsed=0:01:40.43    \nframe=   37 fps=0.4 q=29.5 size=     256KiB time=00:00:01.16 bitrate=1797.9kbits/s speed=0.0115x elapsed=0:01:41.05    \nframe=   37 fps=0.4 q=29.5 size=     256KiB time=00:00:01.16 bitrate=1797.9kbits/s speed=0.0115x elapsed=0:01:41.62    \nframe=   37 fps=0.4 q=29.5 size=     256KiB time=00:00:01.16 bitrate=1797.9kbits/s speed=0.0114x elapsed=0:01:42.20    \nframe=   38 fps=0.4 q=33.0 size=     256KiB time=00:00:01.20 bitrate=1747.9kbits/s speed=0.0117x elapsed=0:01:42.73    \nframe=   38 fps=0.4 q=33.0 size=     256KiB time=00:00:01.20 bitrate=1747.9kbits/s speed=0.0116x elapsed=0:01:43.27    \nframe=   38 fps=0.4 q=33.0 size=     256KiB time=00:00:01.20 bitrate=1747.9kbits/s speed=0.0116x elapsed=0:01:43.77    \nframe=   38 fps=0.4 q=33.0 size=     256KiB time=00:00:01.20 bitrate=1747.9kbits/s speed=0.0115x elapsed=0:01:44.30    \nframe=   38 fps=0.4 q=33.0 size=     256KiB time=00:00:01.20 bitrate=1747.9kbits/s speed=0.0114x elapsed=0:01:44.83    \nframe=   38 fps=0.4 q=33.0 size=     256KiB time=00:00:01.20 bitrate=1747.9kbits/s speed=0.0114x elapsed=0:01:45.35    \nframe=   39 fps=0.4 q=35.1 size=     256KiB time=00:00:01.23 bitrate=1700.7kbits/s speed=0.0116x elapsed=0:01:45.89    \nframe=   39 fps=0.4 q=35.1 size=     256KiB time=00:00:01.23 bitrate=1700.7kbits/s speed=0.0116x elapsed=0:01:46.47    \nframe=   39 fps=0.4 q=35.1 size=     256KiB time=00:00:01.23 bitrate=1700.7kbits/s speed=0.0115x elapsed=0:01:47.06    \nframe=   39 fps=0.4 q=35.1 size=     256KiB time=00:00:01.23 bitrate=1700.7kbits/s speed=0.0115x elapsed=0:01:47.59    \nframe=   39 fps=0.4 q=35.1 size=     256KiB time=00:00:01.23 bitrate=1700.7kbits/s speed=0.0114x elapsed=0:01:48.13    \nframe=   39 fps=0.4 q=35.1 size=     256KiB time=00:00:01.23 bitrate=1700.7kbits/s speed=0.0113x elapsed=0:01:48.72    \nframe=   39 fps=0.4 q=35.1 size=     256KiB time=00:00:01.23 bitrate=1700.7kbits/s speed=0.0113x elapsed=0:01:49.29    \nframe=   39 fps=0.4 q=35.1 size=     256KiB time=00:00:01.23 bitrate=1700.7kbits/s speed=0.0112x elapsed=0:01:49.83    \nframe=   39 fps=0.4 q=35.1 size=     256KiB time=00:00:01.23 bitrate=1700.7kbits/s speed=0.0112x elapsed=0:01:50.44    \nframe=   40 fps=0.4 q=34.9 size=     256KiB time=00:00:01.26 bitrate=1655.9kbits/s speed=0.0114x elapsed=0:01:50.98    \nframe=   40 fps=0.4 q=34.9 size=     256KiB time=00:00:01.26 bitrate=1655.9kbits/s speed=0.0114x elapsed=0:01:51.55    \nframe=   40 fps=0.4 q=34.9 size=     256KiB time=00:00:01.26 bitrate=1655.9kbits/s speed=0.0113x elapsed=0:01:52.09    \nframe=   40 fps=0.4 q=34.9 size=     256KiB time=00:00:01.26 bitrate=1655.9kbits/s speed=0.0112x elapsed=0:01:52.63    \nframe=   40 fps=0.4 q=34.9 size=     256KiB time=00:00:01.26 bitrate=1655.9kbits/s speed=0.0112x elapsed=0:01:53.15    \nframe=   41 fps=0.4 q=29.4 size=     256KiB time=00:00:01.30 bitrate=1613.5kbits/s speed=0.0114x elapsed=0:01:53.69    \nframe=   41 fps=0.4 q=29.4 size=     256KiB time=00:00:01.30 bitrate=1613.5kbits/s speed=0.0114x elapsed=0:01:54.21    \nframe=   41 fps=0.4 q=29.4 size=     256KiB time=00:00:01.30 bitrate=1613.5kbits/s speed=0.0113x elapsed=0:01:54.75    \nframe=   41 fps=0.4 q=29.4 size=     256KiB time=00:00:01.30 bitrate=1613.5kbits/s speed=0.0113x elapsed=0:01:55.27    \nframe=   42 fps=0.4 q=32.2 size=     256KiB time=00:00:01.33 bitrate=1573.1kbits/s speed=0.0115x elapsed=0:01:55.79    \nframe=   42 fps=0.4 q=32.2 size=     256KiB time=00:00:01.33 bitrate=1573.1kbits/s speed=0.0115x elapsed=0:01:56.31    \nframe=   43 fps=0.4 q=34.4 size=     256KiB time=00:00:01.36 bitrate=1534.8kbits/s speed=0.0117x elapsed=0:01:56.84    \nframe=   43 fps=0.4 q=34.4 size=     256KiB time=00:00:01.36 bitrate=1534.8kbits/s speed=0.0116x elapsed=0:01:57.37    \nframe=   43 fps=0.4 q=34.4 size=     256KiB time=00:00:01.36 bitrate=1534.8kbits/s speed=0.0116x elapsed=0:01:57.89    \nframe=   43 fps=0.4 q=34.4 size=     256KiB time=00:00:01.36 bitrate=1534.8kbits/s speed=0.0115x elapsed=0:01:58.40    \nframe=   43 fps=0.4 q=34.4 size=     256KiB time=00:00:01.36 bitrate=1534.8kbits/s speed=0.0115x elapsed=0:01:58.91    \nframe=   44 fps=0.4 q=34.7 size=     512KiB time=00:00:01.40 bitrate=2996.2kbits/s speed=0.0117x elapsed=0:01:59.44    \nframe=   44 fps=0.4 q=34.7 size=     512KiB time=00:00:01.40 bitrate=2996.2kbits/s speed=0.0117x elapsed=0:01:59.95    \nframe=   44 fps=0.4 q=34.7 size=     512KiB time=00:00:01.40 bitrate=2996.2kbits/s speed=0.0116x elapsed=0:02:00.50    \nframe=   44 fps=0.4 q=34.7 size=     512KiB time=00:00:01.40 bitrate=2996.2kbits/s speed=0.0116x elapsed=0:02:01.02    \nframe=   44 fps=0.4 q=34.7 size=     512KiB time=00:00:01.40 bitrate=2996.2kbits/s speed=0.0115x elapsed=0:02:01.54    \nframe=   45 fps=0.4 q=34.9 size=     512KiB time=00:00:01.43 bitrate=2926.5kbits/s speed=0.0117x elapsed=0:02:02.06    \nframe=   45 fps=0.4 q=34.9 size=     512KiB time=00:00:01.43 bitrate=2926.5kbits/s speed=0.0117x elapsed=0:02:02.60    \nframe=   45 fps=0.4 q=34.9 size=     512KiB time=00:00:01.43 bitrate=2926.5kbits/s speed=0.0116x elapsed=0:02:03.10    \nframe=   46 fps=0.4 q=29.7 size=     512KiB time=00:00:01.46 bitrate=2860.0kbits/s speed=0.0119x elapsed=0:02:03.62    \nframe=   46 fps=0.4 q=29.7 size=     512KiB time=00:00:01.46 bitrate=2860.0kbits/s speed=0.0118x elapsed=0:02:04.15    \nframe=   47 fps=0.4 q=32.4 size=     512KiB time=00:00:01.50 bitrate=2796.4kbits/s speed=0.012x elapsed=0:02:04.68    \nframe=   47 fps=0.4 q=32.4 size=     512KiB time=00:00:01.50 bitrate=2796.4kbits/s speed=0.012x elapsed=0:02:05.27    \nframe=   47 fps=0.4 q=32.4 size=     512KiB time=00:00:01.50 bitrate=2796.4kbits/s speed=0.0119x elapsed=0:02:05.81    \nframe=   47 fps=0.4 q=32.4 size=     512KiB time=00:00:01.50 bitrate=2796.4kbits/s speed=0.0119x elapsed=0:02:06.35    \nframe=   47 fps=0.4 q=32.4 size=     512KiB time=00:00:01.50 bitrate=2796.4kbits/s speed=0.0118x elapsed=0:02:06.89    \nframe=   47 fps=0.4 q=32.4 size=     512KiB time=00:00:01.50 bitrate=2796.4kbits/s speed=0.0118x elapsed=0:02:07.44    \nframe=   48 fps=0.4 q=35.2 size=     512KiB time=00:00:01.53 bitrate=2735.6kbits/s speed=0.012x elapsed=0:02:07.97    \nframe=   48 fps=0.4 q=35.2 size=     512KiB time=00:00:01.53 bitrate=2735.6kbits/s speed=0.0119x elapsed=0:02:08.48    \nframe=   48 fps=0.4 q=35.2 size=     512KiB time=00:00:01.53 bitrate=2735.6kbits/s speed=0.0119x elapsed=0:02:09.00    \nframe=   48 fps=0.4 q=35.2 size=     512KiB time=00:00:01.53 bitrate=2735.6kbits/s speed=0.0118x elapsed=0:02:09.52    \nframe=   49 fps=0.4 q=34.9 size=     512KiB time=00:00:01.56 bitrate=2677.4kbits/s speed=0.012x elapsed=0:02:10.04    \nframe=   49 fps=0.4 q=34.9 size=     512KiB time=00:00:01.56 bitrate=2677.4kbits/s speed=0.012x elapsed=0:02:10.57    \nframe=   50 fps=0.4 q=29.3 size=     512KiB time=00:00:01.60 bitrate=2621.7kbits/s speed=0.0122x elapsed=0:02:11.09    \nframe=   50 fps=0.4 q=29.3 size=     512KiB time=00:00:01.60 bitrate=2621.7kbits/s speed=0.0122x elapsed=0:02:11.60    \nframe=   51 fps=0.4 q=32.9 size=     512KiB time=00:00:01.63 bitrate=2568.2kbits/s speed=0.0124x elapsed=0:02:12.11    \nframe=   51 fps=0.4 q=32.9 size=     512KiB time=00:00:01.63 bitrate=2568.2kbits/s speed=0.0123x elapsed=0:02:12.63    \nframe=   51 fps=0.4 q=32.9 size=     512KiB time=00:00:01.63 bitrate=2568.2kbits/s speed=0.0123x elapsed=0:02:13.15    \nframe=   52 fps=0.4 q=34.9 size=     512KiB time=00:00:01.66 bitrate=2516.8kbits/s speed=0.0125x elapsed=0:02:13.66    \nframe=   52 fps=0.4 q=34.9 size=     512KiB time=00:00:01.66 bitrate=2516.8kbits/s speed=0.0124x elapsed=0:02:14.19    \nframe=   53 fps=0.4 q=34.8 size=     512KiB time=00:00:01.70 bitrate=2467.4kbits/s speed=0.0126x elapsed=0:02:14.72    \nframe=   53 fps=0.4 q=34.8 size=     512KiB time=00:00:01.70 bitrate=2467.4kbits/s speed=0.0126x elapsed=0:02:15.23    \nframe=   54 fps=0.4 q=29.2 size=     512KiB time=00:00:01.73 bitrate=2420.0kbits/s speed=0.0128x elapsed=0:02:15.74    \nframe=   54 fps=0.4 q=29.2 size=     512KiB time=00:00:01.73 bitrate=2420.0kbits/s speed=0.0127x elapsed=0:02:16.27    \nframe=   55 fps=0.4 q=32.8 size=     512KiB time=00:00:01.76 bitrate=2374.3kbits/s speed=0.0129x elapsed=0:02:16.78    \nframe=   55 fps=0.4 q=32.8 size=     512KiB time=00:00:01.76 bitrate=2374.3kbits/s speed=0.0129x elapsed=0:02:17.33    \nframe=   55 fps=0.4 q=32.8 size=     512KiB time=00:00:01.76 bitrate=2374.3kbits/s speed=0.0128x elapsed=0:02:17.87    \nframe=   55 fps=0.4 q=32.8 size=     512KiB time=00:00:01.76 bitrate=2374.3kbits/s speed=0.0128x elapsed=0:02:18.40    \nframe=   55 fps=0.4 q=32.8 size=     512KiB time=00:00:01.76 bitrate=2374.3kbits/s speed=0.0127x elapsed=0:02:18.93    \nframe=   55 fps=0.4 q=32.8 size=     512KiB time=00:00:01.76 bitrate=2374.3kbits/s speed=0.0127x elapsed=0:02:19.43    \nframe=   55 fps=0.4 q=32.8 size=     512KiB time=00:00:01.76 bitrate=2374.3kbits/s speed=0.0126x elapsed=0:02:19.94    \nframe=   56 fps=0.4 q=34.8 size=     512KiB time=00:00:01.80 bitrate=2330.4kbits/s speed=0.0128x elapsed=0:02:20.46    \nframe=   56 fps=0.4 q=34.8 size=     512KiB time=00:00:01.80 bitrate=2330.4kbits/s speed=0.0128x elapsed=0:02:20.98    \nframe=   56 fps=0.4 q=34.8 size=     512KiB time=00:00:01.80 bitrate=2330.4kbits/s speed=0.0127x elapsed=0:02:21.50    \nframe=   56 fps=0.4 q=34.8 size=     512KiB time=00:00:01.80 bitrate=2330.4kbits/s speed=0.0127x elapsed=0:02:22.04    \nframe=   57 fps=0.4 q=34.6 size=     512KiB time=00:00:01.83 bitrate=2288.0kbits/s speed=0.0129x elapsed=0:02:22.56    \nframe=   57 fps=0.4 q=34.6 size=     512KiB time=00:00:01.83 bitrate=2288.0kbits/s speed=0.0128x elapsed=0:02:23.10    \nframe=   57 fps=0.4 q=34.6 size=     512KiB time=00:00:01.83 bitrate=2288.0kbits/s speed=0.0128x elapsed=0:02:23.69    \nframe=   57 fps=0.4 q=34.6 size=     512KiB time=00:00:01.83 bitrate=2288.0kbits/s speed=0.0127x elapsed=0:02:24.26    \nframe=   58 fps=0.4 q=29.3 size=     512KiB time=00:00:01.86 bitrate=2247.1kbits/s speed=0.0129x elapsed=0:02:24.78    \nframe=   58 fps=0.4 q=29.3 size=     512KiB time=00:00:01.86 bitrate=2247.1kbits/s speed=0.0128x elapsed=0:02:25.38    \nframe=   58 fps=0.4 q=29.3 size=     512KiB time=00:00:01.86 bitrate=2247.1kbits/s speed=0.0128x elapsed=0:02:25.99    \nframe=   58 fps=0.4 q=29.3 size=     512KiB time=00:00:01.86 bitrate=2247.1kbits/s speed=0.0127x elapsed=0:02:26.55    \nframe=   59 fps=0.4 q=30.4 size=     512KiB time=00:00:01.90 bitrate=2207.7kbits/s speed=0.0129x elapsed=0:02:27.09    \nframe=   59 fps=0.4 q=30.4 size=     512KiB time=00:00:01.90 bitrate=2207.7kbits/s speed=0.0129x elapsed=0:02:27.61    \nframe=   59 fps=0.4 q=30.4 size=     512KiB time=00:00:01.90 bitrate=2207.7kbits/s speed=0.0128x elapsed=0:02:28.13    \nframe=   60 fps=0.4 q=34.7 size=     512KiB time=00:00:01.93 bitrate=2169.7kbits/s speed=0.013x elapsed=0:02:28.65    \nframe=   60 fps=0.4 q=34.7 size=     512KiB time=00:00:01.93 bitrate=2169.7kbits/s speed=0.013x elapsed=0:02:29.20    \nframe=   61 fps=0.4 q=34.4 size=     512KiB time=00:00:01.96 bitrate=2132.9kbits/s speed=0.0131x elapsed=0:02:29.73    \nframe=   61 fps=0.4 q=34.4 size=     512KiB time=00:00:01.96 bitrate=2132.9kbits/s speed=0.0131x elapsed=0:02:30.25    \nframe=   61 fps=0.4 q=34.4 size=     512KiB time=00:00:01.96 bitrate=2132.9kbits/s speed=0.013x elapsed=0:02:30.77    \nframe=   61 fps=0.4 q=34.4 size=     512KiB time=00:00:01.96 bitrate=2132.9kbits/s speed=0.013x elapsed=0:02:31.29    \nframe=   62 fps=0.4 q=34.7 size=     512KiB time=00:00:02.00 bitrate=2097.3kbits/s speed=0.0132x elapsed=0:02:31.81    \nframe=   62 fps=0.4 q=34.7 size=     512KiB time=00:00:02.00 bitrate=2097.3kbits/s speed=0.0131x elapsed=0:02:32.33    \nframe=   63 fps=0.4 q=29.4 size=     512KiB time=00:00:02.03 bitrate=2062.9kbits/s speed=0.0133x elapsed=0:02:32.87    \nframe=   63 fps=0.4 q=29.4 size=     512KiB time=00:00:02.03 bitrate=2062.9kbits/s speed=0.0133x elapsed=0:02:33.39    \nframe=   64 fps=0.4 q=32.9 size=     512KiB time=00:00:02.06 bitrate=2029.7kbits/s speed=0.0134x elapsed=0:02:33.93    \nframe=   64 fps=0.4 q=32.9 size=     512KiB time=00:00:02.06 bitrate=2029.7kbits/s speed=0.0134x elapsed=0:02:34.45    \nframe=   65 fps=0.4 q=34.7 size=     768KiB time=00:00:02.10 bitrate=2996.1kbits/s speed=0.0136x elapsed=0:02:34.97    \nframe=   65 fps=0.4 q=34.7 size=     768KiB time=00:00:02.10 bitrate=2996.1kbits/s speed=0.0135x elapsed=0:02:35.48    \nframe=   65 fps=0.4 q=34.7 size=     768KiB time=00:00:02.10 bitrate=2996.1kbits/s speed=0.0135x elapsed=0:02:36.02    \nframe=   65 fps=0.4 q=34.7 size=     768KiB time=00:00:02.10 bitrate=2996.1kbits/s speed=0.0134x elapsed=0:02:36.52    \nframe=   66 fps=0.4 q=34.2 size=     768KiB time=00:00:02.13 bitrate=2949.3kbits/s speed=0.0136x elapsed=0:02:37.05    \nframe=   66 fps=0.4 q=34.2 size=     768KiB time=00:00:02.13 bitrate=2949.3kbits/s speed=0.0135x elapsed=0:02:37.56    \nframe=   67 fps=0.4 q=29.0 size=     768KiB time=00:00:02.16 bitrate=2903.9kbits/s speed=0.0137x elapsed=0:02:38.07    \nframe=   68 fps=0.4 q=32.4 size=     768KiB time=00:00:02.20 bitrate=2859.9kbits/s speed=0.0139x elapsed=0:02:38.59    \nframe=   69 fps=0.4 q=34.2 size=     768KiB time=00:00:02.23 bitrate=2817.2kbits/s speed=0.014x elapsed=0:02:39.11    \nframe=   69 fps=0.4 q=34.2 size=     768KiB time=00:00:02.23 bitrate=2817.2kbits/s speed=0.014x elapsed=0:02:39.62    \nframe=   69 fps=0.4 q=34.2 size=     768KiB time=00:00:02.23 bitrate=2817.2kbits/s speed=0.0139x elapsed=0:02:40.14    \nframe=   70 fps=0.4 q=34.1 size=     768KiB time=00:00:02.26 bitrate=2775.8kbits/s speed=0.0141x elapsed=0:02:40.68    \nframe=   70 fps=0.4 q=34.1 size=     768KiB time=00:00:02.26 bitrate=2775.8kbits/s speed=0.0141x elapsed=0:02:41.28    \nframe=   71 fps=0.4 q=29.0 size=     768KiB time=00:00:02.30 bitrate=2735.6kbits/s speed=0.0142x elapsed=0:02:41.84    \nframe=   71 fps=0.4 q=29.0 size=     768KiB time=00:00:02.30 bitrate=2735.6kbits/s speed=0.0142x elapsed=0:02:42.39    \nframe=   71 fps=0.4 q=29.0 size=     768KiB time=00:00:02.30 bitrate=2735.6kbits/s speed=0.0141x elapsed=0:02:42.95    \nframe=   71 fps=0.4 q=29.0 size=     768KiB time=00:00:02.30 bitrate=2735.6kbits/s speed=0.0141x elapsed=0:02:43.49    \nframe=   71 fps=0.4 q=29.0 size=     768KiB time=00:00:02.30 bitrate=2735.6kbits/s speed=0.014x elapsed=0:02:44.03    \nframe=   72 fps=0.4 q=32.3 size=     768KiB time=00:00:02.33 bitrate=2696.5kbits/s speed=0.0142x elapsed=0:02:44.57    \nframe=   72 fps=0.4 q=32.3 size=     768KiB time=00:00:02.33 bitrate=2696.5kbits/s speed=0.0141x elapsed=0:02:45.12    \nframe=   72 fps=0.4 q=32.3 size=     768KiB time=00:00:02.33 bitrate=2696.5kbits/s speed=0.0141x elapsed=0:02:45.67    \nframe=   72 fps=0.4 q=32.3 size=     768KiB time=00:00:02.33 bitrate=2696.5kbits/s speed=0.014x elapsed=0:02:46.22    \nframe=   72 fps=0.4 q=32.3 size=     768KiB time=00:00:02.33 bitrate=2696.5kbits/s speed=0.014x elapsed=0:02:46.75    \nframe=   72 fps=0.4 q=32.3 size=     768KiB time=00:00:02.33 bitrate=2696.5kbits/s speed=0.0139x elapsed=0:02:47.28    \nframe=   72 fps=0.4 q=32.3 size=     768KiB time=00:00:02.33 bitrate=2696.5kbits/s speed=0.0139x elapsed=0:02:47.84    \nframe=   73 fps=0.4 q=34.2 size=     768KiB time=00:00:02.36 bitrate=2658.5kbits/s speed=0.0141x elapsed=0:02:48.43    \nframe=   73 fps=0.4 q=34.2 size=     768KiB time=00:00:02.36 bitrate=2658.5kbits/s speed=0.014x elapsed=0:02:48.97    \nframe=   73 fps=0.4 q=34.2 size=     768KiB time=00:00:02.36 bitrate=2658.5kbits/s speed=0.014x elapsed=0:02:49.52    \nframe=   73 fps=0.4 q=34.2 size=     768KiB time=00:00:02.36 bitrate=2658.5kbits/s speed=0.0139x elapsed=0:02:50.05    \nframe=   73 fps=0.4 q=34.2 size=     768KiB time=00:00:02.36 bitrate=2658.5kbits/s speed=0.0139x elapsed=0:02:50.61    \nframe=   74 fps=0.4 q=34.1 size=     768KiB time=00:00:02.40 bitrate=2621.6kbits/s speed=0.014x elapsed=0:02:51.17    \nframe=   74 fps=0.4 q=34.1 size=     768KiB time=00:00:02.40 bitrate=2621.6kbits/s speed=0.014x elapsed=0:02:51.69    \nframe=   74 fps=0.4 q=34.1 size=     768KiB time=00:00:02.40 bitrate=2621.6kbits/s speed=0.0139x elapsed=0:02:52.19    \nframe=   75 fps=0.4 q=29.0 size=     768KiB time=00:00:02.43 bitrate=2585.7kbits/s speed=0.0141x elapsed=0:02:52.76    \nframe=   76 fps=0.4 q=32.2 size=     768KiB time=00:00:02.46 bitrate=2550.7kbits/s speed=0.0142x elapsed=0:02:53.31    \nframe=   76 fps=0.4 q=32.2 size=     768KiB time=00:00:02.46 bitrate=2550.7kbits/s speed=0.0142x elapsed=0:02:53.88    \nframe=   76 fps=0.4 q=32.2 size=     768KiB time=00:00:02.46 bitrate=2550.7kbits/s speed=0.0141x elapsed=0:02:54.43    \nframe=   77 fps=0.4 q=34.2 size=     768KiB time=00:00:02.50 bitrate=2516.7kbits/s speed=0.0143x elapsed=0:02:54.98    \nframe=   77 fps=0.4 q=34.2 size=     768KiB time=00:00:02.50 bitrate=2516.7kbits/s speed=0.0142x elapsed=0:02:55.53    \nframe=   77 fps=0.4 q=34.2 size=     768KiB time=00:00:02.50 bitrate=2516.7kbits/s speed=0.0142x elapsed=0:02:56.10    \nframe=   77 fps=0.4 q=34.2 size=     768KiB time=00:00:02.50 bitrate=2516.7kbits/s speed=0.0142x elapsed=0:02:56.62    \nframe=   77 fps=0.4 q=34.2 size=     768KiB time=00:00:02.50 bitrate=2516.7kbits/s speed=0.0141x elapsed=0:02:57.17    \nframe=   78 fps=0.4 q=34.2 size=     768KiB time=00:00:02.53 bitrate=2483.6kbits/s speed=0.0143x elapsed=0:02:57.73    \nframe=   78 fps=0.4 q=34.2 size=     768KiB time=00:00:02.53 bitrate=2483.6kbits/s speed=0.0142x elapsed=0:02:58.26    \nframe=   78 fps=0.4 q=34.2 size=     768KiB time=00:00:02.53 bitrate=2483.6kbits/s speed=0.0142x elapsed=0:02:58.78    \nframe=   78 fps=0.4 q=34.2 size=     768KiB time=00:00:02.53 bitrate=2483.6kbits/s speed=0.0141x elapsed=0:02:59.32    \nframe=   79 fps=0.4 q=29.3 size=     768KiB time=00:00:02.56 bitrate=2451.4kbits/s speed=0.0143x elapsed=0:02:59.89    \nframe=   79 fps=0.4 q=29.3 size=     768KiB time=00:00:02.56 bitrate=2451.4kbits/s speed=0.0142x elapsed=0:03:00.46    \nframe=   80 fps=0.4 q=32.2 size=     768KiB time=00:00:02.60 bitrate=2419.9kbits/s speed=0.0144x elapsed=0:03:01.03    \nframe=   80 fps=0.4 q=32.2 size=     768KiB time=00:00:02.60 bitrate=2419.9kbits/s speed=0.0143x elapsed=0:03:01.62    \nframe=   80 fps=0.4 q=32.2 size=     768KiB time=00:00:02.60 bitrate=2419.9kbits/s speed=0.0143x elapsed=0:03:02.19    \nframe=   80 fps=0.4 q=32.2 size=     768KiB time=00:00:02.60 bitrate=2419.9kbits/s speed=0.0142x elapsed=0:03:02.80    \nframe=   80 fps=0.4 q=32.2 size=     768KiB time=00:00:02.60 bitrate=2419.9kbits/s speed=0.0142x elapsed=0:03:03.37    \nframe=   80 fps=0.4 q=32.2 size=     768KiB time=00:00:02.60 bitrate=2419.9kbits/s speed=0.0141x elapsed=0:03:03.90    \nframe=   80 fps=0.4 q=32.2 size=     768KiB time=00:00:02.60 bitrate=2419.9kbits/s speed=0.0141x elapsed=0:03:04.41    \nframe=   80 fps=0.4 q=32.2 size=     768KiB time=00:00:02.60 bitrate=2419.9kbits/s speed=0.0141x elapsed=0:03:04.95    \nframe=   81 fps=0.4 q=34.5 size=     768KiB time=00:00:02.63 bitrate=2389.3kbits/s speed=0.0142x elapsed=0:03:05.49    \nframe=   81 fps=0.4 q=34.5 size=     768KiB time=00:00:02.63 bitrate=2389.3kbits/s speed=0.0142x elapsed=0:03:06.03    \nframe=   82 fps=0.4 q=34.2 size=     768KiB time=00:00:02.66 bitrate=2359.4kbits/s speed=0.0143x elapsed=0:03:06.58    \nframe=   82 fps=0.4 q=34.2 size=     768KiB time=00:00:02.66 bitrate=2359.4kbits/s speed=0.0143x elapsed=0:03:07.08    \nframe=   83 fps=0.4 q=28.9 size=     768KiB time=00:00:02.70 bitrate=2330.3kbits/s speed=0.0144x elapsed=0:03:07.61    \nframe=   84 fps=0.4 q=32.4 size=     768KiB time=00:00:02.73 bitrate=2301.9kbits/s speed=0.0145x elapsed=0:03:08.13    \nframe=   84 fps=0.4 q=32.4 size=     768KiB time=00:00:02.73 bitrate=2301.9kbits/s speed=0.0145x elapsed=0:03:08.65    \nframe=   84 fps=0.4 q=32.4 size=     768KiB time=00:00:02.73 bitrate=2301.9kbits/s speed=0.0144x elapsed=0:03:09.17    \nframe=   85 fps=0.4 q=34.7 size=     768KiB time=00:00:02.76 bitrate=2274.1kbits/s speed=0.0146x elapsed=0:03:09.69    \nframe=   85 fps=0.4 q=34.7 size=     768KiB time=00:00:02.76 bitrate=2274.1kbits/s speed=0.0145x elapsed=0:03:10.20    \nframe=   86 fps=0.5 q=34.8 size=     768KiB time=00:00:02.80 bitrate=2247.1kbits/s speed=0.0147x elapsed=0:03:10.72    \nframe=   87 fps=0.5 q=29.1 size=     768KiB time=00:00:02.83 bitrate=2220.6kbits/s speed=0.0148x elapsed=0:03:11.24    \nframe=   87 fps=0.5 q=29.1 size=     768KiB time=00:00:02.83 bitrate=2220.6kbits/s speed=0.0148x elapsed=0:03:11.76    \nframe=   88 fps=0.5 q=32.4 size=    1024KiB time=00:00:02.86 bitrate=2926.4kbits/s speed=0.0149x elapsed=0:03:12.30    \nframe=   88 fps=0.5 q=32.4 size=    1024KiB time=00:00:02.86 bitrate=2926.4kbits/s speed=0.0149x elapsed=0:03:12.83    \nframe=   89 fps=0.5 q=34.8 size=    1024KiB time=00:00:02.90 bitrate=2892.7kbits/s speed=0.015x elapsed=0:03:13.36    \nframe=   90 fps=0.5 q=34.7 size=    1024KiB time=00:00:02.93 bitrate=2859.9kbits/s speed=0.0151x elapsed=0:03:13.89    \nframe=   90 fps=0.5 q=34.7 size=    1024KiB time=00:00:02.93 bitrate=2859.9kbits/s speed=0.0151x elapsed=0:03:14.42    \nframe=   90 fps=0.5 q=34.7 size=    1024KiB time=00:00:02.93 bitrate=2859.9kbits/s speed=0.015x elapsed=0:03:14.95    \nframe=   90 fps=0.5 q=34.7 size=    1024KiB time=00:00:02.93 bitrate=2859.9kbits/s speed=0.015x elapsed=0:03:15.46    \nframe=   92 fps=0.5 q=32.7 size=    1024KiB time=00:00:03.00 bitrate=2796.3kbits/s speed=0.0153x elapsed=0:03:15.99    \nframe=   92 fps=0.5 q=32.7 size=    1024KiB time=00:00:03.00 bitrate=2796.3kbits/s speed=0.0153x elapsed=0:03:16.52    \nframe=   93 fps=0.5 q=34.9 size=    1024KiB time=00:00:03.03 bitrate=2765.6kbits/s speed=0.0154x elapsed=0:03:17.03    \nframe=   93 fps=0.5 q=34.9 size=    1024KiB time=00:00:03.03 bitrate=2765.6kbits/s speed=0.0154x elapsed=0:03:17.57    \nframe=   93 fps=0.5 q=34.9 size=    1024KiB time=00:00:03.03 bitrate=2765.6kbits/s speed=0.0153x elapsed=0:03:18.09    \nframe=   94 fps=0.5 q=34.7 size=    1024KiB time=00:00:03.06 bitrate=2735.5kbits/s speed=0.0154x elapsed=0:03:18.60    \nframe=   94 fps=0.5 q=34.7 size=    1024KiB time=00:00:03.06 bitrate=2735.5kbits/s speed=0.0154x elapsed=0:03:19.13    \nframe=   95 fps=0.5 q=28.9 size=    1024KiB time=00:00:03.10 bitrate=2706.1kbits/s speed=0.0155x elapsed=0:03:19.66    \nframe=   96 fps=0.5 q=32.4 size=    1024KiB time=00:00:03.13 bitrate=2677.3kbits/s speed=0.0157x elapsed=0:03:20.18    \nframe=   96 fps=0.5 q=32.4 size=    1024KiB time=00:00:03.13 bitrate=2677.3kbits/s speed=0.0156x elapsed=0:03:20.70    \nframe=   97 fps=0.5 q=34.8 size=    1024KiB time=00:00:03.16 bitrate=2649.1kbits/s speed=0.0157x elapsed=0:03:21.22    \nframe=   97 fps=0.5 q=34.8 size=    1024KiB time=00:00:03.16 bitrate=2649.1kbits/s speed=0.0157x elapsed=0:03:21.74    \nframe=   98 fps=0.5 q=34.7 size=    1024KiB time=00:00:03.20 bitrate=2621.6kbits/s speed=0.0158x elapsed=0:03:22.28    \nframe=   98 fps=0.5 q=34.7 size=    1024KiB time=00:00:03.20 bitrate=2621.6kbits/s speed=0.0158x elapsed=0:03:22.80    \nframe=   98 fps=0.5 q=34.7 size=    1024KiB time=00:00:03.20 bitrate=2621.6kbits/s speed=0.0157x elapsed=0:03:23.33    \nframe=   98 fps=0.5 q=34.7 size=    1024KiB time=00:00:03.20 bitrate=2621.6kbits/s speed=0.0157x elapsed=0:03:23.89    \nframe=   98 fps=0.5 q=34.7 size=    1024KiB time=00:00:03.20 bitrate=2621.6kbits/s speed=0.0157x elapsed=0:03:24.42    \nframe=   98 fps=0.5 q=34.7 size=    1024KiB time=00:00:03.20 bitrate=2621.6kbits/s speed=0.0156x elapsed=0:03:24.95    \nframe=   99 fps=0.5 q=28.9 size=    1024KiB time=00:00:03.23 bitrate=2594.5kbits/s speed=0.0157x elapsed=0:03:25.46    \nframe=   99 fps=0.5 q=28.9 size=    1024KiB time=00:00:03.23 bitrate=2594.5kbits/s speed=0.0157x elapsed=0:03:25.98    \nframe=   99 fps=0.5 q=28.9 size=    1024KiB time=00:00:03.23 bitrate=2594.5kbits/s speed=0.0157x elapsed=0:03:26.50    \nframe=  100 fps=0.5 q=32.0 size=    1024KiB time=00:00:03.26 bitrate=2568.0kbits/s speed=0.0158x elapsed=0:03:27.00    \nframe=  100 fps=0.5 q=32.0 size=    1024KiB time=00:00:03.26 bitrate=2568.0kbits/s speed=0.0157x elapsed=0:03:27.53    \nframe=  100 fps=0.5 q=32.0 size=    1024KiB time=00:00:03.26 bitrate=2568.0kbits/s speed=0.0157x elapsed=0:03:28.05    \nframe=  101 fps=0.5 q=34.9 size=    1024KiB time=00:00:03.30 bitrate=2542.1kbits/s speed=0.0158x elapsed=0:03:28.58    \nframe=  101 fps=0.5 q=34.9 size=    1024KiB time=00:00:03.30 bitrate=2542.1kbits/s speed=0.0158x elapsed=0:03:29.10    \nframe=  101 fps=0.5 q=34.9 size=    1024KiB time=00:00:03.30 bitrate=2542.1kbits/s speed=0.0157x elapsed=0:03:29.62    \nframe=  102 fps=0.5 q=34.7 size=    1024KiB time=00:00:03.33 bitrate=2516.7kbits/s speed=0.0159x elapsed=0:03:30.14    \nframe=  102 fps=0.5 q=34.7 size=    1024KiB time=00:00:03.33 bitrate=2516.7kbits/s speed=0.0158x elapsed=0:03:30.66    \nframe=  103 fps=0.5 q=29.1 size=    1024KiB time=00:00:03.36 bitrate=2491.8kbits/s speed=0.0159x elapsed=0:03:31.21    \nframe=  103 fps=0.5 q=29.1 size=    1024KiB time=00:00:03.36 bitrate=2491.8kbits/s speed=0.0159x elapsed=0:03:31.73    \nframe=  103 fps=0.5 q=29.1 size=    1024KiB time=00:00:03.36 bitrate=2491.8kbits/s speed=0.0159x elapsed=0:03:32.25    \nframe=  103 fps=0.5 q=29.1 size=    1024KiB time=00:00:03.36 bitrate=2491.8kbits/s speed=0.0158x elapsed=0:03:32.78    \nframe=  104 fps=0.5 q=32.7 size=    1024KiB time=00:00:03.40 bitrate=2467.3kbits/s speed=0.0159x elapsed=0:03:33.30    \nframe=  104 fps=0.5 q=32.7 size=    1024KiB time=00:00:03.40 bitrate=2467.3kbits/s speed=0.0159x elapsed=0:03:33.82    \nframe=  104 fps=0.5 q=32.7 size=    1024KiB time=00:00:03.40 bitrate=2467.3kbits/s speed=0.0159x elapsed=0:03:34.34    \nframe=  105 fps=0.5 q=34.9 size=    1024KiB time=00:00:03.43 bitrate=2443.4kbits/s speed=0.016x elapsed=0:03:34.86    \nframe=  105 fps=0.5 q=34.9 size=    1024KiB time=00:00:03.43 bitrate=2443.4kbits/s speed=0.0159x elapsed=0:03:35.39    \nframe=  105 fps=0.5 q=34.9 size=    1024KiB time=00:00:03.43 bitrate=2443.4kbits/s speed=0.0159x elapsed=0:03:35.90    \nframe=  106 fps=0.5 q=35.1 size=    1024KiB time=00:00:03.46 bitrate=2419.9kbits/s speed=0.016x elapsed=0:03:36.42    \nframe=  106 fps=0.5 q=35.1 size=    1024KiB time=00:00:03.46 bitrate=2419.9kbits/s speed=0.016x elapsed=0:03:36.95    \nframe=  106 fps=0.5 q=35.1 size=    1024KiB time=00:00:03.46 bitrate=2419.9kbits/s speed=0.0159x elapsed=0:03:37.50    \nframe=  106 fps=0.5 q=35.1 size=    1024KiB time=00:00:03.46 bitrate=2419.9kbits/s speed=0.0159x elapsed=0:03:38.00    \nframe=  107 fps=0.5 q=29.5 size=    1024KiB time=00:00:03.50 bitrate=2396.8kbits/s speed=0.016x elapsed=0:03:38.53    \nframe=  108 fps=0.5 q=32.8 size=    1280KiB time=00:00:03.53 bitrate=2967.8kbits/s speed=0.0161x elapsed=0:03:39.06    \nframe=  108 fps=0.5 q=32.8 size=    1280KiB time=00:00:03.53 bitrate=2967.8kbits/s speed=0.0161x elapsed=0:03:39.57    \nframe=  108 fps=0.5 q=32.8 size=    1280KiB time=00:00:03.53 bitrate=2967.8kbits/s speed=0.0161x elapsed=0:03:40.09    \nframe=  109 fps=0.5 q=35.2 size=    1280KiB time=00:00:03.56 bitrate=2940.0kbits/s speed=0.0162x elapsed=0:03:40.60    \nframe=  109 fps=0.5 q=35.2 size=    1280KiB time=00:00:03.56 bitrate=2940.0kbits/s speed=0.0161x elapsed=0:03:41.12    \nframe=  109 fps=0.5 q=35.2 size=    1280KiB time=00:00:03.56 bitrate=2940.0kbits/s speed=0.0161x elapsed=0:03:41.66    \nframe=  110 fps=0.5 q=35.2 size=    1280KiB time=00:00:03.60 bitrate=2912.8kbits/s speed=0.0162x elapsed=0:03:42.19    \nframe=  111 fps=0.5 q=29.5 size=    1280KiB time=00:00:03.63 bitrate=2886.1kbits/s speed=0.0163x elapsed=0:03:42.71    \nframe=  111 fps=0.5 q=29.5 size=    1280KiB time=00:00:03.63 bitrate=2886.1kbits/s speed=0.0163x elapsed=0:03:43.22    \nframe=  111 fps=0.5 q=29.5 size=    1280KiB time=00:00:03.63 bitrate=2886.1kbits/s speed=0.0162x elapsed=0:03:43.75    \nframe=  112 fps=0.5 q=32.9 size=    1280KiB time=00:00:03.66 bitrate=2859.8kbits/s speed=0.0163x elapsed=0:03:44.29    \nframe=  112 fps=0.5 q=32.9 size=    1280KiB time=00:00:03.66 bitrate=2859.8kbits/s speed=0.0163x elapsed=0:03:44.84    \nframe=  112 fps=0.5 q=32.9 size=    1280KiB time=00:00:03.66 bitrate=2859.8kbits/s speed=0.0163x elapsed=0:03:45.35    \nframe=  112 fps=0.5 q=32.9 size=    1280KiB time=00:00:03.66 bitrate=2859.8kbits/s speed=0.0162x elapsed=0:03:45.88    \nframe=  112 fps=0.5 q=32.9 size=    1280KiB time=00:00:03.66 bitrate=2859.8kbits/s speed=0.0162x elapsed=0:03:46.43    \nframe=  113 fps=0.5 q=35.2 size=    1280KiB time=00:00:03.70 bitrate=2834.1kbits/s speed=0.0163x elapsed=0:03:46.95    \nframe=  113 fps=0.5 q=35.2 size=    1280KiB time=00:00:03.70 bitrate=2834.1kbits/s speed=0.0163x elapsed=0:03:47.46    \nframe=  113 fps=0.5 q=35.2 size=    1280KiB time=00:00:03.70 bitrate=2834.1kbits/s speed=0.0162x elapsed=0:03:47.98    \nframe=  114 fps=0.5 q=35.2 size=    1280KiB time=00:00:03.73 bitrate=2808.8kbits/s speed=0.0163x elapsed=0:03:48.50    \nframe=  114 fps=0.5 q=35.2 size=    1280KiB time=00:00:03.73 bitrate=2808.8kbits/s speed=0.0163x elapsed=0:03:49.02    \nframe=  114 fps=0.5 q=35.2 size=    1280KiB time=00:00:03.73 bitrate=2808.8kbits/s speed=0.0163x elapsed=0:03:49.55    \nframe=  114 fps=0.5 q=35.2 size=    1280KiB time=00:00:03.73 bitrate=2808.8kbits/s speed=0.0162x elapsed=0:03:50.09    \nframe=  114 fps=0.5 q=35.2 size=    1280KiB time=00:00:03.73 bitrate=2808.8kbits/s speed=0.0162x elapsed=0:03:50.61    \nframe=  115 fps=0.5 q=29.5 size=    1280KiB time=00:00:03.76 bitrate=2783.9kbits/s speed=0.0163x elapsed=0:03:51.14    \nframe=  116 fps=0.5 q=32.9 size=    1280KiB time=00:00:03.80 bitrate=2759.5kbits/s speed=0.0164x elapsed=0:03:51.69    \nframe=  116 fps=0.5 q=32.9 size=    1280KiB time=00:00:03.80 bitrate=2759.5kbits/s speed=0.0164x elapsed=0:03:52.22    \nframe=  116 fps=0.5 q=32.9 size=    1280KiB time=00:00:03.80 bitrate=2759.5kbits/s speed=0.0163x elapsed=0:03:52.79    \nframe=  116 fps=0.5 q=32.9 size=    1280KiB time=00:00:03.80 bitrate=2759.5kbits/s speed=0.0163x elapsed=0:03:53.36    \nframe=  116 fps=0.5 q=32.9 size=    1280KiB time=00:00:03.80 bitrate=2759.5kbits/s speed=0.0162x elapsed=0:03:53.94    \nframe=  116 fps=0.5 q=32.9 size=    1280KiB time=00:00:03.80 bitrate=2759.5kbits/s speed=0.0162x elapsed=0:03:54.58    \nframe=  116 fps=0.5 q=32.9 size=    1280KiB time=00:00:03.80 bitrate=2759.5kbits/s speed=0.0162x elapsed=0:03:55.20    \nframe=  116 fps=0.5 q=32.9 size=    1280KiB time=00:00:03.80 bitrate=2759.5kbits/s speed=0.0161x elapsed=0:03:55.76    \nframe=  116 fps=0.5 q=32.9 size=    1280KiB time=00:00:03.80 bitrate=2759.5kbits/s speed=0.0161x elapsed=0:03:56.34    \nframe=  116 fps=0.5 q=32.9 size=    1280KiB time=00:00:03.80 bitrate=2759.5kbits/s speed=0.016x elapsed=0:03:56.91    \nframe=  116 fps=0.5 q=32.9 size=    1280KiB time=00:00:03.80 bitrate=2759.5kbits/s speed=0.016x elapsed=0:03:57.46    \nframe=  116 fps=0.5 q=32.9 size=    1280KiB time=00:00:03.80 bitrate=2759.5kbits/s speed=0.016x elapsed=0:03:58.01    \nframe=  117 fps=0.5 q=35.2 size=    1280KiB time=00:00:03.83 bitrate=2735.5kbits/s speed=0.0161x elapsed=0:03:58.55    \nframe=  117 fps=0.5 q=35.2 size=    1280KiB time=00:00:03.83 bitrate=2735.5kbits/s speed=0.016x elapsed=0:03:59.09    \nframe=  117 fps=0.5 q=35.2 size=    1280KiB time=00:00:03.83 bitrate=2735.5kbits/s speed=0.016x elapsed=0:03:59.65    \nframe=  118 fps=0.5 q=35.6 size=    1280KiB time=00:00:03.86 bitrate=2711.9kbits/s speed=0.0161x elapsed=0:04:00.23    \nframe=  118 fps=0.5 q=35.6 size=    1280KiB time=00:00:03.86 bitrate=2711.9kbits/s speed=0.0161x elapsed=0:04:00.75    \nframe=  118 fps=0.5 q=35.6 size=    1280KiB time=00:00:03.86 bitrate=2711.9kbits/s speed=0.016x elapsed=0:04:01.26    \nframe=  118 fps=0.5 q=35.6 size=    1280KiB time=00:00:03.86 bitrate=2711.9kbits/s speed=0.016x elapsed=0:04:01.78    \nframe=  118 fps=0.5 q=35.6 size=    1280KiB time=00:00:03.86 bitrate=2711.9kbits/s speed=0.016x elapsed=0:04:02.29    \nframe=  118 fps=0.5 q=35.6 size=    1280KiB time=00:00:03.86 bitrate=2711.9kbits/s speed=0.0159x elapsed=0:04:02.81    \nframe=  119 fps=0.5 q=29.4 size=    1280KiB time=00:00:03.90 bitrate=2688.7kbits/s speed=0.016x elapsed=0:04:03.35    \nframe=  119 fps=0.5 q=29.4 size=    1280KiB time=00:00:03.90 bitrate=2688.7kbits/s speed=0.016x elapsed=0:04:03.88    \nframe=  120 fps=0.5 q=32.8 size=    1280KiB time=00:00:03.93 bitrate=2666.0kbits/s speed=0.0161x elapsed=0:04:04.41    \nframe=  120 fps=0.5 q=32.8 size=    1280KiB time=00:00:03.93 bitrate=2666.0kbits/s speed=0.0161x elapsed=0:04:04.91    \nframe=  120 fps=0.5 q=32.8 size=    1280KiB time=00:00:03.93 bitrate=2666.0kbits/s speed=0.016x elapsed=0:04:05.43    \nframe=  121 fps=0.5 q=35.5 size=    1280KiB time=00:00:03.96 bitrate=2643.6kbits/s speed=0.0161x elapsed=0:04:05.96    \nframe=  121 fps=0.5 q=35.5 size=    1280KiB time=00:00:03.96 bitrate=2643.6kbits/s speed=0.0161x elapsed=0:04:06.48    \nframe=  121 fps=0.5 q=35.5 size=    1280KiB time=00:00:03.96 bitrate=2643.6kbits/s speed=0.0161x elapsed=0:04:07.01    \nframe=  121 fps=0.5 q=35.5 size=    1280KiB time=00:00:03.96 bitrate=2643.6kbits/s speed=0.016x elapsed=0:04:07.54    \nframe=  122 fps=0.5 q=35.6 size=    1280KiB time=00:00:04.00 bitrate=2621.5kbits/s speed=0.0161x elapsed=0:04:08.07    \nframe=  122 fps=0.5 q=35.6 size=    1280KiB time=00:00:04.00 bitrate=2621.5kbits/s speed=0.0161x elapsed=0:04:08.60    \nframe=  123 fps=0.5 q=29.6 size=    1280KiB time=00:00:04.03 bitrate=2599.9kbits/s speed=0.0162x elapsed=0:04:09.10    \nframe=  123 fps=0.5 q=29.6 size=    1280KiB time=00:00:04.03 bitrate=2599.9kbits/s speed=0.0162x elapsed=0:04:09.62    \nframe=  123 fps=0.5 q=29.6 size=    1280KiB time=00:00:04.03 bitrate=2599.9kbits/s speed=0.0161x elapsed=0:04:10.15    \nframe=  123 fps=0.5 q=29.6 size=    1280KiB time=00:00:04.03 bitrate=2599.9kbits/s speed=0.0161x elapsed=0:04:10.68    \nframe=  123 fps=0.5 q=29.6 size=    1280KiB time=00:00:04.03 bitrate=2599.9kbits/s speed=0.0161x elapsed=0:04:11.21    \nframe=  124 fps=0.5 q=32.9 size=    1280KiB time=00:00:04.06 bitrate=2578.6kbits/s speed=0.0162x elapsed=0:04:11.73    \nframe=  124 fps=0.5 q=32.9 size=    1280KiB time=00:00:04.06 bitrate=2578.6kbits/s speed=0.0161x elapsed=0:04:12.25    \nframe=  124 fps=0.5 q=32.9 size=    1280KiB time=00:00:04.06 bitrate=2578.6kbits/s speed=0.0161x elapsed=0:04:12.76    \nframe=  125 fps=0.5 q=35.0 size=    1280KiB time=00:00:04.10 bitrate=2557.6kbits/s speed=0.0162x elapsed=0:04:13.28    \nframe=  126 fps=0.5 q=35.0 size=    1280KiB time=00:00:04.13 bitrate=2537.0kbits/s speed=0.0163x elapsed=0:04:13.81    \nframe=  127 fps=0.5 q=29.3 size=    1280KiB time=00:00:04.16 bitrate=2516.7kbits/s speed=0.0164x elapsed=0:04:14.33    \nframe=  127 fps=0.5 q=29.3 size=    1280KiB time=00:00:04.16 bitrate=2516.7kbits/s speed=0.0163x elapsed=0:04:14.87    \nframe=  127 fps=0.5 q=29.3 size=    1280KiB time=00:00:04.16 bitrate=2516.7kbits/s speed=0.0163x elapsed=0:04:15.44    \nframe=  128 fps=0.5 q=32.6 size=    1536KiB time=00:00:04.20 bitrate=2996.0kbits/s speed=0.0164x elapsed=0:04:15.97    \nframe=  128 fps=0.5 q=32.6 size=    1536KiB time=00:00:04.20 bitrate=2996.0kbits/s speed=0.0164x elapsed=0:04:16.48    \nframe=  128 fps=0.5 q=32.6 size=    1536KiB time=00:00:04.20 bitrate=2996.0kbits/s speed=0.0163x elapsed=0:04:17.01    \nframe=  128 fps=0.5 q=32.6 size=    1536KiB time=00:00:04.20 bitrate=2996.0kbits/s speed=0.0163x elapsed=0:04:17.54    \nframe=  128 fps=0.5 q=32.6 size=    1536KiB time=00:00:04.20 bitrate=2996.0kbits/s speed=0.0163x elapsed=0:04:18.10    \nframe=  128 fps=0.5 q=32.6 size=    1536KiB time=00:00:04.20 bitrate=2996.0kbits/s speed=0.0162x elapsed=0:04:18.64    \nframe=  128 fps=0.5 q=32.6 size=    1536KiB time=00:00:04.20 bitrate=2996.0kbits/s speed=0.0162x elapsed=0:04:19.16    \nframe=  129 fps=0.5 q=34.8 size=    1536KiB time=00:00:04.23 bitrate=2972.4kbits/s speed=0.0163x elapsed=0:04:19.68    \nframe=  129 fps=0.5 q=34.8 size=    1536KiB time=00:00:04.23 bitrate=2972.4kbits/s speed=0.0163x elapsed=0:04:20.19    \nframe=  129 fps=0.5 q=34.8 size=    1536KiB time=00:00:04.23 bitrate=2972.4kbits/s speed=0.0162x elapsed=0:04:20.72    \nframe=  129 fps=0.5 q=34.8 size=    1536KiB time=00:00:04.23 bitrate=2972.4kbits/s speed=0.0162x elapsed=0:04:21.25    \nframe=  129 fps=0.5 q=34.8 size=    1536KiB time=00:00:04.23 bitrate=2972.4kbits/s speed=0.0162x elapsed=0:04:21.78    \nframe=  130 fps=0.5 q=34.8 size=    1536KiB time=00:00:04.26 bitrate=2949.2kbits/s speed=0.0163x elapsed=0:04:22.31    \nframe=  131 fps=0.5 q=29.3 size=    1536KiB time=00:00:04.30 bitrate=2926.3kbits/s speed=0.0164x elapsed=0:04:22.84    \nframe=  131 fps=0.5 q=29.3 size=    1536KiB time=00:00:04.30 bitrate=2926.3kbits/s speed=0.0163x elapsed=0:04:23.36    \nframe=  132 fps=0.5 q=32.5 size=    1536KiB time=00:00:04.33 bitrate=2903.8kbits/s speed=0.0164x elapsed=0:04:23.91    \nframe=  132 fps=0.5 q=32.5 size=    1536KiB time=00:00:04.33 bitrate=2903.8kbits/s speed=0.0164x elapsed=0:04:24.45    \nframe=  132 fps=0.5 q=32.5 size=    1536KiB time=00:00:04.33 bitrate=2903.8kbits/s speed=0.0164x elapsed=0:04:24.97    \nframe=  133 fps=0.5 q=34.6 size=    1536KiB time=00:00:04.36 bitrate=2881.7kbits/s speed=0.0164x elapsed=0:04:25.49    \nframe=  133 fps=0.5 q=34.6 size=    1536KiB time=00:00:04.36 bitrate=2881.7kbits/s speed=0.0164x elapsed=0:04:26.01    \nframe=  133 fps=0.5 q=34.6 size=    1536KiB time=00:00:04.36 bitrate=2881.7kbits/s speed=0.0164x elapsed=0:04:26.54    \nframe=  133 fps=0.5 q=34.6 size=    1536KiB time=00:00:04.36 bitrate=2881.7kbits/s speed=0.0164x elapsed=0:04:27.06    \nframe=  134 fps=0.5 q=34.5 size=    1536KiB time=00:00:04.40 bitrate=2859.8kbits/s speed=0.0164x elapsed=0:04:27.58    \nframe=  135 fps=0.5 q=29.3 size=    1536KiB time=00:00:04.43 bitrate=2838.3kbits/s speed=0.0165x elapsed=0:04:28.10    \nframe=  135 fps=0.5 q=29.3 size=    1536KiB time=00:00:04.43 bitrate=2838.3kbits/s speed=0.0165x elapsed=0:04:28.63    \nframe=  135 fps=0.5 q=29.3 size=    1536KiB time=00:00:04.43 bitrate=2838.3kbits/s speed=0.0165x elapsed=0:04:29.16    \nframe=  136 fps=0.5 q=32.3 size=    1536KiB time=00:00:04.46 bitrate=2817.1kbits/s speed=0.0166x elapsed=0:04:29.69    \nframe=  136 fps=0.5 q=32.3 size=    1536KiB time=00:00:04.46 bitrate=2817.1kbits/s speed=0.0165x elapsed=0:04:30.22    \nframe=  137 fps=0.5 q=34.0 size=    1536KiB time=00:00:04.50 bitrate=2796.3kbits/s speed=0.0166x elapsed=0:04:30.74    \nframe=  137 fps=0.5 q=34.0 size=    1536KiB time=00:00:04.50 bitrate=2796.3kbits/s speed=0.0166x elapsed=0:04:31.27    \nframe=  137 fps=0.5 q=34.0 size=    1536KiB time=00:00:04.50 bitrate=2796.3kbits/s speed=0.0166x elapsed=0:04:31.82    \nframe=  137 fps=0.5 q=34.0 size=    1536KiB time=00:00:04.50 bitrate=2796.3kbits/s speed=0.0165x elapsed=0:04:32.34    \nframe=  138 fps=0.5 q=33.7 size=    1536KiB time=00:00:04.53 bitrate=2775.7kbits/s speed=0.0166x elapsed=0:04:32.86    \nframe=  138 fps=0.5 q=33.7 size=    1536KiB time=00:00:04.53 bitrate=2775.7kbits/s speed=0.0166x elapsed=0:04:33.37    \nframe=  138 fps=0.5 q=33.7 size=    1536KiB time=00:00:04.53 bitrate=2775.7kbits/s speed=0.0166x elapsed=0:04:33.89    \nframe=  138 fps=0.5 q=33.7 size=    1536KiB time=00:00:04.53 bitrate=2775.7kbits/s speed=0.0165x elapsed=0:04:34.41    \nframe=  139 fps=0.5 q=28.7 size=    1536KiB time=00:00:04.56 bitrate=2755.5kbits/s speed=0.0166x elapsed=0:04:34.93    \nframe=  139 fps=0.5 q=28.7 size=    1536KiB time=00:00:04.56 bitrate=2755.5kbits/s speed=0.0166x elapsed=0:04:35.45    \nframe=  140 fps=0.5 q=31.6 size=    1536KiB time=00:00:04.60 bitrate=2735.5kbits/s speed=0.0167x elapsed=0:04:35.97    \nframe=  140 fps=0.5 q=31.6 size=    1536KiB time=00:00:04.60 bitrate=2735.5kbits/s speed=0.0166x elapsed=0:04:36.48    \nframe=  141 fps=0.5 q=33.8 size=    1536KiB time=00:00:04.63 bitrate=2715.8kbits/s speed=0.0167x elapsed=0:04:37.01    \nframe=  141 fps=0.5 q=33.8 size=    1536KiB time=00:00:04.63 bitrate=2715.8kbits/s speed=0.0167x elapsed=0:04:37.53    \nframe=  141 fps=0.5 q=33.8 size=    1536KiB time=00:00:04.63 bitrate=2715.8kbits/s speed=0.0167x elapsed=0:04:38.06    \nframe=  141 fps=0.5 q=33.8 size=    1536KiB time=00:00:04.63 bitrate=2715.8kbits/s speed=0.0166x elapsed=0:04:38.58    \nframe=  142 fps=0.5 q=33.7 size=    1536KiB time=00:00:04.66 bitrate=2696.4kbits/s speed=0.0167x elapsed=0:04:39.10    \nframe=  142 fps=0.5 q=33.7 size=    1536KiB time=00:00:04.66 bitrate=2696.4kbits/s speed=0.0167x elapsed=0:04:39.62    \nframe=  143 fps=0.5 q=29.0 size=    1536KiB time=00:00:04.70 bitrate=2677.3kbits/s speed=0.0168x elapsed=0:04:40.13    \nframe=  143 fps=0.5 q=29.0 size=    1536KiB time=00:00:04.70 bitrate=2677.3kbits/s speed=0.0167x elapsed=0:04:40.65    \nframe=  143 fps=0.5 q=29.0 size=    1536KiB time=00:00:04.70 bitrate=2677.3kbits/s speed=0.0167x elapsed=0:04:41.17    \nframe=  143 fps=0.5 q=29.0 size=    1536KiB time=00:00:04.70 bitrate=2677.3kbits/s speed=0.0167x elapsed=0:04:41.70    \nframe=  144 fps=0.5 q=31.2 size=    1536KiB time=00:00:04.73 bitrate=2658.4kbits/s speed=0.0168x elapsed=0:04:42.23    \nframe=  144 fps=0.5 q=31.2 size=    1536KiB time=00:00:04.73 bitrate=2658.4kbits/s speed=0.0167x elapsed=0:04:42.76    \nframe=  145 fps=0.5 q=32.9 size=    1536KiB time=00:00:04.76 bitrate=2639.8kbits/s speed=0.0168x elapsed=0:04:43.28    \nframe=  145 fps=0.5 q=32.9 size=    1536KiB time=00:00:04.76 bitrate=2639.8kbits/s speed=0.0168x elapsed=0:04:43.83    \nframe=  145 fps=0.5 q=32.9 size=    1536KiB time=00:00:04.76 bitrate=2639.8kbits/s speed=0.0168x elapsed=0:04:44.35    \nframe=  145 fps=0.5 q=32.9 size=    1536KiB time=00:00:04.76 bitrate=2639.8kbits/s speed=0.0167x elapsed=0:04:44.90    \nframe=  145 fps=0.5 q=32.9 size=    1536KiB time=00:00:04.76 bitrate=2639.8kbits/s speed=0.0167x elapsed=0:04:45.42    \nframe=  146 fps=0.5 q=32.0 size=    1536KiB time=00:00:04.80 bitrate=2621.5kbits/s speed=0.0168x elapsed=0:04:45.93    \nframe=  147 fps=0.5 q=29.9 size=    1536KiB time=00:00:04.83 bitrate=2603.4kbits/s speed=0.0169x elapsed=0:04:46.46    \nframe=  147 fps=0.5 q=29.9 size=    1536KiB time=00:00:04.83 bitrate=2603.4kbits/s speed=0.0168x elapsed=0:04:46.99    \nframe=  147 fps=0.5 q=29.9 size=    1536KiB time=00:00:04.83 bitrate=2603.4kbits/s speed=0.0168x elapsed=0:04:47.51    \nframe=  147 fps=0.5 q=29.9 size=    1536KiB time=00:00:04.83 bitrate=2603.4kbits/s speed=0.0168x elapsed=0:04:48.02    \nframe=  148 fps=0.5 q=30.0 size=    1536KiB time=00:00:04.86 bitrate=2585.6kbits/s speed=0.0169x elapsed=0:04:48.54    \nframe=  149 fps=0.5 q=32.7 size=    1536KiB time=00:00:04.90 bitrate=2568.0kbits/s speed=0.0169x elapsed=0:04:49.10    \n[mp4 @ 000002e189f6aa80] Starting second pass: moving the moov atom to the beginning of the file\n[out#0/mp4 @ 000002e189f6a980] video:1796KiB audio:0KiB subtitle:0KiB other streams:0KiB global headers:2KiB muxing overhead: 0.287913%\nframe=  150 fps=0.5 q=31.7 Lsize=    1802KiB time=00:00:04.93 bitrate=2991.5kbits/s speed=0.017x elapsed=0:04:49.56    \nx265 [info]: frame I:      1, Avg QP:31.69  kb/s: 8718.24 \nx265 [info]: frame P:     36, Avg QP:29.64  kb/s: 6605.46 \nx265 [info]: frame B:    113, Avg QP:34.19  kb/s: 1723.96 \nx265 [info]: Weighted P-Frames: Y:2.8% UV:2.8%\n\nencoded 150 frames in 289.19s (0.52 fps), 2942.15 kb/s, Avg QP:33.09\n",
  "seconds": 290.09444785118103,
  "probe_out": {}
}